# xmcd
# Track frame offsets:
# 150
# 15315
# 30737
# 44657
# 57605
# 69830
# 83610
# 106807
# 119277
# 138885
# 152890
# 165160
# 179747
# 195875
# 211077
# 227285
# 243225
# 258717
# 275302
# 289302
# 301690
# 314962
#
# Disc length: 4388 seconds
# Revision: 2
# Processed by: cddbd v1.5.2PL0 Copyright (c) Steve Scherf et al.
# Submitted via: VisiTrax 2.11.3.279 - For more info visit www.synapsa.com
#
DISCID=27112216
DTITLE=Slim Dusty - Coming Home
DYEAR=1990
DGENRE=Australian Country
TTITLE0=The Only Way
TTITLE1=Further Out
TTITLE2=The Flying Doctor's Ball
TTITLE3=Good Hard Dog
TTITLE4=Old Bush Pub
TTITLE5=Sale Day At St. Lawrence
TTITLE6=Clara Waters
TTITLE7=Nardoo Burns
TTITLE8=Roy
TTITLE9=Humpty Doo Waltz
TTITLE10=Dinosaur
TTITLE11=Lace Up Shoes
TTITLE12=Yellow Gully
TTITLE13=Tex Morton
TTITLE14=Regal Zonophone
TTITLE15=The World's Biggest Cedar Tree
TTITLE16=The Only Time A Fisherman Tells The Truth
TTITLE17=The Outback's Not So Wayback Anymore
TTITLE18=Nebo Pub
TTITLE19=Camp Cooks
TTITLE20=My Old Cooloolah Home
TTITLE21=Footsteps Coming Home
EXTD=1990 EMI Music Australia
EXTT0=
EXTT1=
EXTT2=
EXTT3=
EXTT4=
EXTT5=
EXTT6=
EXTT7=
EXTT8=
EXTT9=
EXTT10=
EXTT11=
EXTT12=
EXTT13=
EXTT14=
EXTT15=
EXTT16=
EXTT17=
EXTT18=
EXTT19=
EXTT20=
EXTT21=
PLAYORDER=
